<?xml version="1.0" encoding="UTF-8" standalone="no"?>
<!-- Created with Inkscape (http://www.inkscape.org/) -->
<svg
   xmlns:svg="http://www.w3.org/2000/svg"
   xmlns="http://www.w3.org/2000/svg"
   version="1.0"
   width="75"
   height="75"
   viewBox="0 0 75 75"
   id="Layer_1"
   xml:space="preserve"><defs
   id="defs1393" />
<polygon
   points="39.389,13.769 22.235,28.606 6,28.606 6,47.699 21.989,47.699 39.389,62.75 39.389,13.769 "
   style="stroke:#000000;stroke-width:5;stroke-linejoin:round"
   id="polygon1362" />
<g
   style="display:none"
   id="g1364">
	<path
   d="M 40.677,103.949 C 17.798,103.949 -0.75,122.497 -0.75,145.381 C -0.75,168.26 17.797,186.81 40.677,186.81 C 63.557,186.81 82.106,168.26 82.106,145.381 C 82.106,122.497 63.557,103.949 40.677,103.949 z M 40.676,181.627 C 20.658,181.627 4.428,165.398 4.428,145.377 C 4.428,125.356 20.657,109.127 40.676,109.127 C 60.697,109.127 76.926,125.356 76.926,145.377 C 76.926,165.398 60.697,181.627 40.676,181.627 z "
   style="opacity:0.4;fill:#04001f;display:inline"
   id="path1366" />
	<path
   d="M 40.676,113.331 C 22.98,113.331 8.63,127.678 8.63,145.378 C 8.63,163.077 22.98,177.427 40.676,177.427 C 58.375,177.427 72.724,163.077 72.724,145.378 C 72.724,127.677 58.375,113.331 40.676,113.331 z M 40.676,172.172 C 25.881,172.172 13.884,160.173 13.884,145.377 C 13.884,130.579 25.881,118.584 40.676,118.584 C 55.473,118.584 67.47,130.579 67.47,145.377 C 67.47,160.173 55.473,172.172 40.676,172.172 z "
   style="opacity:0.4;fill:#04001f;display:inline"
   id="path1368" />
	<path
   d="M 40.674,122.787 C 28.202,122.787 18.086,132.899 18.086,145.378 C 18.086,157.854 28.202,167.97 40.674,167.97 C 53.152,167.97 63.266,157.854 63.266,145.378 C 63.266,132.899 53.152,122.787 40.674,122.787 z M 40.674,162.714 C 31.102,162.714 23.339,154.951 23.339,145.377 C 23.339,135.802 31.102,128.039 40.674,128.039 C 50.249,128.039 58.013,135.802 58.013,145.377 C 58.013,154.952 50.25,162.714 40.674,162.714 z "
   style="opacity:0.4;fill:#04001f;display:inline"
   id="path1370" />
</g>
<g
   style="display:none"
   id="g1372">
	<path
   d="M 40.498,115.401 C 50.369,115.401 59.122,120.173 64.582,127.537 L 71.11,121.01 C 63.94,112.011 52.898,106.239 40.499,106.239 C 31.342,106.239 22.927,109.39 16.261,114.66 L 22.794,121.193 C 27.755,117.552 33.873,115.401 40.498,115.401 z "
   style="fill:none;stroke:#ff0000;stroke-width:5;display:inline"
   id="path1374" />
	<path
   d="M 40.498,175.349 C 33.814,175.349 27.642,173.16 22.657,169.46 L 16.128,175.988 C 22.815,181.318 31.282,184.513 40.499,184.513 C 52.957,184.513 64.045,178.683 71.211,169.61 L 64.678,163.076 C 59.223,170.515 50.427,175.349 40.498,175.349 z "
   style="fill:none;stroke:#ff0000;stroke-width:5;display:inline"
   id="path1376" />
	<path
   d="M 40.495,165.573 C 36.519,165.573 32.821,164.407 29.695,162.423 L 22.657,169.461 C 27.641,173.16 33.814,175.35 40.498,175.35 C 50.428,175.35 59.224,170.516 64.678,163.078 L 57.629,156.031 C 54.064,161.752 47.734,165.573 40.495,165.573 z "
   style="fill:none;stroke:#ff0000;stroke-width:5;display:inline"
   id="path1378" />
	<path
   d="M 40.498,115.401 C 33.873,115.401 27.755,117.552 22.794,121.193 L 29.84,128.24 C 32.936,126.31 36.579,125.178 40.495,125.178 C 47.674,125.178 53.961,128.933 57.543,134.577 L 64.582,127.537 C 59.122,120.173 50.369,115.401 40.498,115.401 z "
   style="fill:none;stroke:#ff0000;stroke-width:5;display:inline"
   id="path1380" />
	<path
   d="M 29.694,162.422 C 32.82,164.406 36.518,165.572 40.494,165.572 C 47.733,165.572 54.063,161.752 57.628,156.029 L 46.86,145.26 L 57.543,134.576 C 53.961,128.931 47.674,125.177 40.495,125.177 C 36.579,125.177 32.936,126.31 29.84,128.239 L 46.859,145.257 L 29.694,162.422 z "
   style="fill:none;stroke:#ff0000;stroke-width:5;display:inline"
   id="path1382" />
</g>
<g
   id="g1384">
	<path
   d="M 55.082,20.537 C 58.777,25.523 60.966,31.694 60.966,38.377 C 60.966,44.998 58.815,51.115 55.178,56.076"
   style="fill:none;stroke:#000000;stroke-width:5;stroke-linecap:round"
   id="path1386" />
	<path
   d="M 61.71,62.611 C 66.977,55.945 70.128,47.531 70.128,38.378 C 70.128,29.161 66.936,20.696 61.609,14.01"
   style="fill:none;stroke:#000000;stroke-width:5;stroke-linecap:round"
   id="path1388" />
	<path
   d="M 48.128,49.03 C 50.057,45.934 51.19,42.291 51.19,38.377 C 51.19,34.399 50.026,30.703 48.043,27.577"
   style="fill:none;stroke:#000000;stroke-width:5;stroke-linecap:round"
   id="path1390" />
</g>
</svg>